<mxfile host="Electron" modified="2024-03-05T17:24:30.783Z" agent="Mozilla/5.0 (Windows NT 10.0; Win64; x64) AppleWebKit/537.36 (KHTML, like Gecko) draw.io/23.1.5 Chrome/120.0.6099.109 Electron/28.1.0 Safari/537.36" etag="4tPv_SgWnRx-gtJxytb9" version="23.1.5" type="device">
  <diagram name="Страница — 1" id="rjtNeQWUUos9Vwh95CR6">
    <mxGraphModel dx="1195" dy="703" grid="1" gridSize="10" guides="1" tooltips="1" connect="1" arrows="1" fold="1" page="1" pageScale="1" pageWidth="827" pageHeight="1169" math="0" shadow="0">
      <root>
        <mxCell id="0" />
        <mxCell id="1" parent="0" />
        <mxCell id="4V6SgqlA3Us_y7r4_eee-1" value="&lt;b&gt;WEB&lt;/b&gt;" style="ellipse;shape=cloud;whiteSpace=wrap;html=1;" vertex="1" parent="1">
          <mxGeometry x="360" y="200" width="150" height="100" as="geometry" />
        </mxCell>
        <mxCell id="4V6SgqlA3Us_y7r4_eee-3" value="&lt;b&gt;Repository&lt;/b&gt;" style="ellipse;whiteSpace=wrap;html=1;" vertex="1" parent="1">
          <mxGeometry x="540" y="450" width="120" height="80" as="geometry" />
        </mxCell>
        <mxCell id="4V6SgqlA3Us_y7r4_eee-4" value="&lt;b&gt;Queue&lt;/b&gt;" style="ellipse;whiteSpace=wrap;html=1;" vertex="1" parent="1">
          <mxGeometry x="180" y="460" width="120" height="80" as="geometry" />
        </mxCell>
        <mxCell id="4V6SgqlA3Us_y7r4_eee-5" value="&lt;b&gt;Scheduler&lt;/b&gt;" style="rounded=0;whiteSpace=wrap;html=1;" vertex="1" parent="1">
          <mxGeometry x="180" y="360" width="120" height="60" as="geometry" />
        </mxCell>
        <mxCell id="4V6SgqlA3Us_y7r4_eee-6" value="&lt;b&gt;Multithreaded loader&lt;/b&gt;" style="rounded=0;whiteSpace=wrap;html=1;" vertex="1" parent="1">
          <mxGeometry x="385" y="360" width="120" height="60" as="geometry" />
        </mxCell>
        <mxCell id="4V6SgqlA3Us_y7r4_eee-7" value="" style="endArrow=classic;html=1;rounded=0;exitX=0.48;exitY=0.94;exitDx=0;exitDy=0;exitPerimeter=0;entryX=0.392;entryY=0.017;entryDx=0;entryDy=0;entryPerimeter=0;" edge="1" parent="1" source="4V6SgqlA3Us_y7r4_eee-1" target="4V6SgqlA3Us_y7r4_eee-6">
          <mxGeometry width="50" height="50" relative="1" as="geometry">
            <mxPoint x="310" y="620" as="sourcePoint" />
            <mxPoint x="360" y="570" as="targetPoint" />
          </mxGeometry>
        </mxCell>
        <mxCell id="4V6SgqlA3Us_y7r4_eee-8" value="Web pages" style="text;html=1;align=center;verticalAlign=middle;whiteSpace=wrap;rounded=0;" vertex="1" parent="1">
          <mxGeometry x="430" y="310" width="90" height="30" as="geometry" />
        </mxCell>
        <mxCell id="4V6SgqlA3Us_y7r4_eee-11" value="" style="endArrow=classic;html=1;rounded=0;entryX=0;entryY=0.5;entryDx=0;entryDy=0;exitX=1;exitY=0.5;exitDx=0;exitDy=0;" edge="1" parent="1" source="4V6SgqlA3Us_y7r4_eee-5" target="4V6SgqlA3Us_y7r4_eee-6">
          <mxGeometry width="50" height="50" relative="1" as="geometry">
            <mxPoint x="340" y="570" as="sourcePoint" />
            <mxPoint x="390" y="520" as="targetPoint" />
          </mxGeometry>
        </mxCell>
        <mxCell id="4V6SgqlA3Us_y7r4_eee-12" value="URLs" style="text;html=1;align=center;verticalAlign=middle;whiteSpace=wrap;rounded=0;" vertex="1" parent="1">
          <mxGeometry x="300" y="360" width="90" height="30" as="geometry" />
        </mxCell>
        <mxCell id="4V6SgqlA3Us_y7r4_eee-14" value="" style="endArrow=classic;html=1;rounded=0;entryX=0.5;entryY=1;entryDx=0;entryDy=0;exitX=0.5;exitY=0;exitDx=0;exitDy=0;" edge="1" parent="1" source="4V6SgqlA3Us_y7r4_eee-4" target="4V6SgqlA3Us_y7r4_eee-5">
          <mxGeometry width="50" height="50" relative="1" as="geometry">
            <mxPoint x="290" y="610" as="sourcePoint" />
            <mxPoint x="340" y="560" as="targetPoint" />
          </mxGeometry>
        </mxCell>
        <mxCell id="4V6SgqlA3Us_y7r4_eee-15" value="URLs" style="text;html=1;align=center;verticalAlign=middle;whiteSpace=wrap;rounded=0;" vertex="1" parent="1">
          <mxGeometry x="220" y="430" width="90" height="30" as="geometry" />
        </mxCell>
        <mxCell id="4V6SgqlA3Us_y7r4_eee-16" value="" style="endArrow=classic;html=1;rounded=0;exitX=0.5;exitY=1;exitDx=0;exitDy=0;entryX=1;entryY=0.5;entryDx=0;entryDy=0;edgeStyle=orthogonalEdgeStyle;" edge="1" parent="1" source="4V6SgqlA3Us_y7r4_eee-6" target="4V6SgqlA3Us_y7r4_eee-4">
          <mxGeometry width="50" height="50" relative="1" as="geometry">
            <mxPoint x="400" y="640" as="sourcePoint" />
            <mxPoint x="450" y="590" as="targetPoint" />
          </mxGeometry>
        </mxCell>
        <mxCell id="4V6SgqlA3Us_y7r4_eee-17" value="URLs" style="text;html=1;align=center;verticalAlign=middle;whiteSpace=wrap;rounded=0;" vertex="1" parent="1">
          <mxGeometry x="330" y="470" width="90" height="30" as="geometry" />
        </mxCell>
        <mxCell id="4V6SgqlA3Us_y7r4_eee-18" value="" style="endArrow=classic;html=1;rounded=0;exitX=1;exitY=0.5;exitDx=0;exitDy=0;entryX=0.5;entryY=0;entryDx=0;entryDy=0;edgeStyle=orthogonalEdgeStyle;" edge="1" parent="1" source="4V6SgqlA3Us_y7r4_eee-6" target="4V6SgqlA3Us_y7r4_eee-3">
          <mxGeometry width="50" height="50" relative="1" as="geometry">
            <mxPoint x="310" y="610" as="sourcePoint" />
            <mxPoint x="360" y="560" as="targetPoint" />
          </mxGeometry>
        </mxCell>
        <mxCell id="4V6SgqlA3Us_y7r4_eee-19" value="Pages data" style="text;html=1;align=center;verticalAlign=middle;whiteSpace=wrap;rounded=0;" vertex="1" parent="1">
          <mxGeometry x="540" y="360" width="90" height="30" as="geometry" />
        </mxCell>
      </root>
    </mxGraphModel>
  </diagram>
</mxfile>
